# xmcd
#
# Track frame offsets: 
#        150
#        21872
#        41910
#        55748
#        71379
#        90985
#        110607
#        129199
#        141250
#        164133
#        186509
#        202082
#        218804
#        241931
#        260790
#
# Disc length: 3765 seconds
#
# Revision: 1
# Processed by: cddbd v1.5.2PL0 Copyright (c) Steve Scherf et al.
# Submitted via: ExactAudioCopy v0.99pb5
#
DISCID=e40eb30f
DTITLE=Monguito  El   Unico - El Unico (Sony France)
DYEAR=2001
DGENRE=Salsa
TTITLE0=Flora
TTITLE1=Tonada Guajira
TTITLE2=Esta Canción
TTITLE3=Mi Flor
TTITLE4=Mascote
TTITLE5=Se Tu Historia
TTITLE6=Donde Esta Tu Montuno
TTITLE7=Eres
TTITLE8=Borniquen Tu Guaguanco
TTITLE9=Amanecer Guajiro
TTITLE10=Quitate El Chaqueton
TTITLE11=Me Voy Contigo
TTITLE12=Ave Maria Morena
TTITLE13=Monguito Liego
TTITLE14=El Pajaro Y El Cazador
EXTD=YEAR: 2001
EXTT0=
EXTT1=
EXTT2=
EXTT3=
EXTT4=
EXTT5=
EXTT6=
EXTT7=
EXTT8=
EXTT9=
EXTT10=
EXTT11=
EXTT12=
EXTT13=
EXTT14=
PLAYORDER=
